# xmcd
#
# Track frame offsets:
#	150
#	13976
#	30279
#	52310
#	71955
#	89457
#	104550
#	125179
#	145727
#	161341
#
# Disc length: 2461 seconds
#
# Revision: 0
# Processed by: cddbd v1.5.2PL0 Copyright (c) Steve Scherf et al.
# Submitted via: EasyCDDAExtractor 11.5.3.1
#
DISCID=93099b0a
DTITLE=Sugaray Rayford - Somebody Save Me
DYEAR=2019
DGENRE=Blues
TTITLE0=The Revelator
TTITLE1=Time To get Movin'
TTITLE2=You And I
TTITLE3=My Cards Are On The Table
TTITLE4=I'd Kill For You
TTITLE5=Angels And Devils
TTITLE6=Sometimes You Get The Bear (And Sometimes The Bear Gets You)
TTITLE7=Somebody Save Me
TTITLE8=Is It Just Me
TTITLE9=Dark Night Of The Soul
EXTD=
EXTT0=
EXTT1=
EXTT2=
EXTT3=
EXTT4=
EXTT5=
EXTT6=
EXTT7=
EXTT8=
EXTT9=
PLAYORDER=
